{"title":"It's Complicated.2009.1080p.BluRay.DTS.x264-LTT","uid":5501660,"size":6957932761,"categoryP":"video","categoryS":"hd___movies","magnet":"?xt=urn:btih:740fc0af921a7b27c00811afe11d4d51d143ec28&amp;dn=It%5C%27s+Complicated.2009.1080p.BluRay.DTS.x264-LTT&amp;tr=udp%3A%2F%2Ftracker.openbittorrent.com%3A80&amp;tr=udp%3A%2F%2Fopen.demonii.com%3A1337&amp;tr=udp%3A%2F%2Ftracker.coppersurfer.tk%3A6969&amp;tr=udp%3A%2F%2Fexodus.desync.com%3A6969","seeders":0,"leechers":1,"uploader":"Ltt_01","files":2,"time":1271579606,"description":"It's Complicated.2009.1080p.BluRay.mkv\n**************************************\n\nTiTLE......  It's Complicated\nYEAR.......  2009\nGENRE......  Comedy | Romance \niMDB RATE..  User Rating: 6.8/10 (11,062 votes)\niMDB URL... &lt;a href=&quot; http://www.imdb.com/title/tt1230414/&quot; rel=&quot;nofollow&quot; target=&quot;_NEW&quot;&gt; http://www.imdb.com/title/tt1230414/&lt;/a&gt; \n*************************************************\n\nVideo\nDuration                         : 2h 0mn\nBit rate                         : 6 202 Kbps\nWidth                            : 1 920 pixels\nHeight                           : 1 032 pixels\nDisplay aspect ratio             : 1.860\nFrame rate                       : 23.976 fps\nStream size                      : 5.08 GiB (78%)\n\nAudio\nFormat                           : DTS\nFormat/Info                      : Digital Theater Systems\nBit rate                         : 1 510 Kbps\nChannel(s)                       : 6 channels\nChannel positions                : Front: L C R, Surround: L R, LFE\nSampling rate                    : 48.0 KHz\nResolution                       : 24 bits\nStream size                      : 1.27 GiB (20%)\nLanguage                         : English\n\nSubtitles; English\n******************\n","torrent":{"xt":"urn:btih:740fc0af921a7b27c00811afe11d4d51d143ec28","amp;dn":"It%5C%27s+Complicated.2009.1080p.BluRay.DTS.x264-LTT","amp;tr":["udp%3A%2F%2Ftracker.openbittorrent.com%3A80","udp%3A%2F%2Fopen.demonii.com%3A1337","udp%3A%2F%2Ftracker.coppersurfer.tk%3A6969","udp%3A%2F%2Fexodus.desync.com%3A6969"],"infoHash":"740fc0af921a7b27c00811afe11d4d51d143ec28","infoHashBuffer":{"type":"Buffer","data":[116,15,192,175,146,26,123,39,192,8,17,175,225,29,77,81,209,67,236,40]},"announce":[],"urlList":[]}}